<svg xmlns="http://www.w3.org/2000/svg" xmlns:xlink="http://www.w3.org/1999/xlink" version="1.1" x="0px" y="0px" viewBox="0 0 100 100" enable-background="new 0 0 100 100" xml:space="preserve"><g><path d="M76.478,25.444c-2.302-6.133-8.12-10.194-14.74-10.194c-1.776,0-3.513,0.295-5.179,0.878   C53.431,9.975,47.114,6.063,40.145,6.063c-10.155,0-18.417,8.262-18.417,18.417c0,0.366,0.014,0.739,0.042,1.133   c-7.791,1.312-13.52,7.996-13.52,16.034c0,8.972,7.299,16.271,16.271,16.271h18.285c0.605,3.427,3.597,6.04,7.194,6.04   s6.59-2.613,7.194-6.04h17.952c8.972,0,16.271-7.299,16.271-16.271C91.417,33.075,84.923,26.118,76.478,25.444z M50,61.457   c-2.654,0-4.813-2.159-4.813-4.813c0-1.831,2.647-6.041,4.813-8.993c2.166,2.951,4.813,7.16,4.813,8.993   C54.813,59.298,52.653,61.457,50,61.457z M75.146,55.417H57.136c-0.937-3.875-5.57-9.867-6.153-10.607L50,43.559l-0.983,1.25   c-0.583,0.741-5.216,6.732-6.153,10.607H24.521c-7.593,0-13.771-6.178-13.771-13.771c0-7.162,5.374-13.054,12.5-13.707l1.292-0.118   l-0.166-1.286c-0.101-0.786-0.148-1.438-0.148-2.056c0-8.776,7.14-15.917,15.917-15.917c6.375,0,12.118,3.788,14.632,9.65   l0.496,1.158l1.154-0.506c1.688-0.74,3.475-1.115,5.311-1.115c5.816,0,10.896,3.726,12.641,9.271l0.268,0.85l0.89,0.025   c7.504,0.21,13.382,6.25,13.382,13.75C88.917,49.239,82.739,55.417,75.146,55.417z"></path><path d="M19.75,41.646c0-2.438,1.898-4.522,4.321-4.744l-0.228-2.489c-3.697,0.338-6.593,3.516-6.593,7.233   c0,4.009,3.262,7.271,7.271,7.271v-2.5C21.89,46.417,19.75,44.277,19.75,41.646z"></path><path d="M40.145,15.063c-5.192,0-9.417,4.224-9.417,9.417c0,0.328,0.031,0.728,0.095,1.225l2.479-0.32   c-0.05-0.384-0.075-0.688-0.075-0.904c0-3.814,3.103-6.917,6.917-6.917c2.77,0,5.267,1.647,6.36,4.197l2.298-0.985   C47.314,17.305,43.916,15.063,40.145,15.063z"></path><path d="M75.354,34.394l-0.07,2.499c2.599,0.073,4.634,2.161,4.634,4.753c0,2.631-2.14,4.771-4.771,4.771v2.5   c4.009,0,7.271-3.262,7.271-7.271C82.417,37.69,79.314,34.504,75.354,34.394z"></path><path d="M30,59.064l-0.983,1.25c-0.648,0.824-6.33,8.16-6.33,11.835c0,4.032,3.28,7.313,7.313,7.313s7.313-3.28,7.313-7.313   c0-3.675-5.682-11.011-6.33-11.835L30,59.064z M30,76.962c-2.654,0-4.813-2.159-4.813-4.813c0-1.831,2.647-6.041,4.813-8.993   c2.166,2.951,4.813,7.16,4.813,8.993C34.813,74.803,32.654,76.962,30,76.962z"></path><path d="M50,73.56l-0.983,1.25c-0.648,0.824-6.33,8.16-6.33,11.835c0,4.032,3.28,7.313,7.313,7.313s7.313-3.28,7.313-7.313   c0-3.675-5.682-11.011-6.33-11.835L50,73.56z M50,91.457c-2.654,0-4.813-2.159-4.813-4.813c0-1.831,2.647-6.041,4.813-8.993   c2.166,2.951,4.813,7.16,4.813,8.993C54.813,89.298,52.653,91.457,50,91.457z"></path><path d="M70,59.064l-0.982,1.25c-0.648,0.824-6.33,8.16-6.33,11.835c0,4.032,3.28,7.313,7.313,7.313s7.313-3.28,7.313-7.313   c0-3.675-5.682-11.011-6.33-11.835L70,59.064z M70,76.962c-2.653,0-4.813-2.159-4.813-4.813c0-1.831,2.647-6.041,4.813-8.993   c2.166,2.951,4.813,7.16,4.813,8.993C74.813,74.803,72.653,76.962,70,76.962z"></path></g></svg>